# xmcd CD database file
#
# Track frame offsets:
#	183
#	19808
#	45763
#	69958
#	93358
#	111033
#	127458
#	141718
#	156458
#	176583
#	204913
#	228258
#	256578
#	286053
#
# Disc length: 4494 seconds
#
# Revision: 2
# Processed by: cddbd v1.5.1PL2 Copyright (c) Steve Scherf et al.
# Submitted via: CDex 1.51
#
DISCID=be118c0e
DTITLE=Charlie Parker - Bird and The Trumpets
DYEAR=1900
DGENRE=Jazz
TTITLE0=Shaw 'Nuff
TTITLE1=Groovin' High
TTITLE2=Hot House
TTITLE3=On a Slow Boat to China
TTITLE4=Salt Peanuts
TTITLE5=Barbados
TTITLE6=Just Friends
TTITLE7=April in Paris
TTITLE8=Ornithology
TTITLE9=Bird of Paradise
TTITLE10=Koko
TTITLE11=Out of Nowhere
TTITLE12=Move
TTITLE13=Indiana
EXTD=
EXTT0=
EXTT1=
EXTT2=
EXTT3=
EXTT4=
EXTT5=
EXTT6=
EXTT7=
EXTT8=
EXTT9=
EXTT10=
EXTT11=
EXTT12=
EXTT13=
PLAYORDER=
